<mxfile host="app.diagrams.net" modified="2024-02-26T18:34:05.496Z" agent="Mozilla/5.0 (Windows NT 10.0; Win64; x64) AppleWebKit/537.36 (KHTML, like Gecko) Chrome/120.0.0.0 Safari/537.36" version="23.1.6" etag="ZI_s_3tXfxU3fRve6l88" type="github">
  <diagram name="PÃ¡gina-1" id="NxFzq1fxWQe8szSDe5ui">
    <mxGraphModel>
      <root>
        <mxCell id="0" />
        <mxCell id="1" parent="0" />
      </root>
    </mxGraphModel>
  </diagram>
</mxfile>
